<?xml version="1.0" encoding="UTF-8" ?>
<!DOCTYPE svg PUBLIC "-//W3C//DTD SVG 1.1//EN" "http://www.w3.org/Graphics/SVG/1.1/DTD/svg11.dtd">
<svg width="285pt" height="285pt" viewBox="0 0 285 285" version="1.1" xmlns="http://www.w3.org/2000/svg">
<path fill="#ed5102" d=" M 0.00 0.00 L 285.00 0.00 L 285.00 285.00 L 0.00 285.00 L 0.00 0.00 Z" />
<path fill="#ffffff" d=" M 174.68 55.74 C 181.96 52.52 191.11 53.57 197.22 58.78 C 201.76 62.49 204.80 68.10 205.00 74.00 C 205.26 78.14 204.09 82.16 202.95 86.08 C 216.20 100.01 224.15 118.76 225.19 137.94 C 220.16 138.04 215.14 138.02 210.12 137.95 C 208.79 122.48 202.46 107.44 191.77 96.11 C 184.99 97.35 177.35 97.77 171.48 93.51 C 165.85 89.97 163.11 83.61 161.43 77.45 C 145.40 73.03 127.89 74.40 112.88 81.62 C 110.12 77.46 107.79 73.03 105.69 68.51 C 120.06 61.19 136.62 58.61 152.60 60.41 C 156.77 60.92 160.81 62.28 164.99 62.73 C 168.45 60.73 170.95 57.34 174.68 55.74 Z" />
<path fill="#ffffff" d=" M 63.36 118.46 C 69.08 100.25 81.10 84.05 97.10 73.62 C 99.88 77.72 102.39 82.00 104.62 86.42 C 92.03 95.05 82.32 107.83 77.95 122.50 C 81.98 125.58 86.21 128.89 88.29 133.67 C 90.77 139.45 90.69 146.33 87.97 152.01 C 85.79 156.45 81.79 159.55 77.95 162.50 C 82.30 177.38 92.33 190.04 104.88 198.94 C 102.36 203.12 99.92 207.35 97.38 211.52 C 94.14 209.55 90.86 207.55 88.23 204.78 C 83.77 200.22 78.94 195.97 75.25 190.74 C 69.98 183.40 66.20 175.09 63.37 166.54 C 62.39 162.41 57.65 161.64 54.84 159.12 C 44.31 151.41 44.31 133.59 54.84 125.88 C 57.65 123.36 62.39 122.59 63.36 118.46 Z" />
<path fill="#ffffff" d=" M 139.43 104.33 C 148.11 103.45 157.09 105.92 164.40 110.62 C 171.83 116.02 178.30 123.46 180.36 132.63 C 183.06 141.65 181.86 151.48 177.96 159.96 C 172.80 170.26 162.87 178.13 151.60 180.61 C 134.42 185.08 115.02 175.28 107.86 159.15 C 104.56 151.41 103.12 142.62 105.33 134.38 C 108.46 118.28 123.31 105.89 139.43 104.33 Z" />
<path fill="#ffffff" d=" M 210.12 147.05 C 215.14 146.98 220.16 146.96 225.18 147.06 C 224.29 165.11 217.38 182.86 205.30 196.37 C 202.00 199.30 204.54 203.55 204.81 207.15 C 205.91 214.05 203.00 221.25 197.74 225.76 C 191.85 231.14 182.86 232.48 175.50 229.61 C 171.56 228.07 168.52 225.03 165.59 222.09 C 155.09 225.27 144.02 225.50 133.16 224.80 C 123.59 223.89 114.45 220.67 105.73 216.76 C 107.75 212.12 110.18 207.65 112.98 203.44 C 127.98 210.61 145.44 211.94 161.44 207.57 C 163.11 201.37 165.74 194.85 171.52 191.41 C 177.43 187.29 184.99 187.62 191.75 188.90 C 202.47 177.58 208.78 162.53 210.12 147.05 Z" />
</svg>
